<svg version="1.2" xmlns="http://www.w3.org/2000/svg" viewBox="0 0 1000 587" width="1000" height="587">
	<title>219006-P152XQ-555-ai</title>
	<style>
		tspan { white-space:pre } 
		.s0 { fill: #ee9730 } 
		.s1 { fill: #edb188 } 
		.s2 { fill: #efbe97 } 
		.s3 { fill: #e8a577 } 
		.s4 { fill: #f5cda9 } 
		.s5 { fill: #d3573b } 
		.s6 { fill: #f46640 } 
		.s7 { fill: #f9a42d } 
		.s8 { fill: #3f1715 } 
		.s9 { fill: #21120d } 
		.s10 { fill: #421819 } 
		.s11 { fill: #612423 } 
		.s12 { fill: #fafbed } 
	</style>
	<g id="OBJECTS">
		<g id="&lt;Group&gt;">
			<g id="&lt;Group&gt;">
				<g id="&lt;Group&gt;">
					<path id="&lt;Path&gt;" class="s0" d="m640.7 167.4c0 83.6-67.7 151.4-151.3 151.4-83.6 0-151.4-67.8-151.4-151.4 0-83.6 67.8-151.3 151.4-151.3 83.6 0 151.3 67.7 151.3 151.3z"/>
				</g>
				<g id="&lt;Group&gt;">
					<g id="&lt;Group&gt;">
						<g id="&lt;Group&gt;">
							<path id="&lt;Path&gt;" class="s1" d="m877.2 419.4l-34.8-0.1-51.4-0.1-104.8-0.2q0 0 0.1 0l105.2-58.4z"/>
						</g>
						<g id="&lt;Group&gt;">
							<path id="&lt;Path&gt;" class="s2" d="m877.2 419.4l-34.8-0.1c-10.3-19.6-40.4-30.7-48.7-36.1-10.5-6.9-2.2-22.6-2.2-22.6z"/>
						</g>
						<g id="&lt;Group&gt;">
							<path id="&lt;Path&gt;" class="s3" d="m791 419.2l-104.8-0.2q0 0 0.1 0c1.3-0.7 27.3-12.2 47.3-7.9 17.7 3.7 48.1 1.2 57.4 8.1z"/>
						</g>
					</g>
					<g id="&lt;Group&gt;">
						<g id="&lt;Group&gt;">
							<path id="&lt;Path&gt;" class="s1" d="m513.7 419.4l-71.1-0.1-105.3-0.3-214.5-0.5q0 0 0.2 0l215.3-119.5z"/>
						</g>
						<g id="&lt;Group&gt;">
							<path id="&lt;Path&gt;" class="s2" d="m513.7 419.4l-71.1-0.1c-21.1-40.2-82.6-62.9-99.8-74.1-21.4-14-4.5-46.2-4.5-46.2z"/>
						</g>
						<g id="&lt;Group&gt;">
							<path id="&lt;Path&gt;" class="s3" d="m337.3 419l-214.5-0.5q0 0 0.2 0c2.8-1.3 55.9-24.9 96.8-16.2 36.2 7.7 98.5 2.5 117.5 16.7z"/>
						</g>
					</g>
					<g id="&lt;Group&gt;">
						<g id="&lt;Group&gt;">
							<path id="&lt;Path&gt;" class="s2" d="m782.8 419.4l-49.6-0.1-73.2-0.2-149.2-0.3q0 0 0.1 0l149.8-83.2z"/>
						</g>
						<g id="&lt;Group&gt;">
							<path id="&lt;Path&gt;" class="s4" d="m782.8 419.4l-49.6-0.1c-14.6-27.9-57.4-43.7-69.4-51.5-14.8-9.7-3.1-32.2-3.1-32.2z"/>
						</g>
						<g id="&lt;Group&gt;">
							<path id="&lt;Path&gt;" class="s1" d="m660 419.1l-149.2-0.3q0 0 0.1 0c1.9-0.9 38.9-17.4 67.4-11.3 25.2 5.4 68.5 1.8 81.7 11.6z"/>
						</g>
					</g>
				</g>
				<g id="&lt;Group&gt;">
					<g id="&lt;Group&gt;">
						<path id="&lt;Path&gt;" class="s5" d="m765.2 296.5c-10.3 0.2-18.4 8.9-18.4 19.3v103.9h37.8v-104.4c0-10.6-8.7-19.1-19.4-18.8z"/>
					</g>
					<g id="&lt;Group&gt;">
						<path id="&lt;Path&gt;" class="s6" d="m765.7 296.4c-5.9 0-10.7 8.5-10.7 18.9v104.4h21.4v-104.4c0-10.4-4.8-18.9-10.7-18.9z"/>
					</g>
					<g id="&lt;Group&gt;">
						<path id="&lt;Path&gt;" class="s6" d="m765.7 296.4c-2.2 0-4 8.5-4 18.9v104.4h8v-104.4c0-10.4-1.8-18.9-4-18.9z"/>
					</g>
					<g id="&lt;Group&gt;">
						<g id="&lt;Group&gt;">
							<path id="&lt;Path&gt;" class="s7" d="m758 310.5l-2.5 2.2-0.5-4.6-0.5 4.6-2.4-2.2 2.3 3.7 0.6 1 0.7-1z"/>
						</g>
						<g id="&lt;Group&gt;">
							<path id="&lt;Path&gt;" class="s7" d="m779.4 310.5l-2.5 2.2-0.5-4.6-0.5 4.6-2.5-2.2 2.4 3.7 0.6 1 0.7-1z"/>
						</g>
						<g id="&lt;Group&gt;">
							<path id="&lt;Path&gt;" class="s7" d="m768.7 317.7l-2.5 2.2-0.5-4.7-0.5 4.7-2.4-2.2 2.3 3.6 0.6 1.1 0.7-1.1z"/>
						</g>
						<g id="&lt;Group&gt;">
							<path id="&lt;Path&gt;" class="s7" d="m768.7 335.5l-2.5 2.2-0.5-4.7-0.5 4.7-2.4-2.2 2.3 3.6 0.6 1.1 0.7-1.1z"/>
						</g>
						<g id="&lt;Group&gt;">
							<path id="&lt;Path&gt;" class="s7" d="m768.7 353.3l-2.5 2.2-0.5-4.7-0.5 4.7-2.4-2.2 2.3 3.6v0.1l0.6 1 0.7-1.1z"/>
						</g>
						<g id="&lt;Group&gt;">
							<path id="&lt;Path&gt;" class="s7" d="m758 327.1l-2.5 2.1-0.5-4.6-0.5 4.6-2.4-2.1 2.3 3.6 0.6 1 0.7-1z"/>
						</g>
						<g id="&lt;Group&gt;">
							<path id="&lt;Path&gt;" class="s7" d="m779.4 327.1l-2.5 2.1-0.5-4.6-0.5 4.6-2.5-2.1 2.4 3.6 0.6 1 0.7-1z"/>
						</g>
						<g id="&lt;Group&gt;">
							<path id="&lt;Path&gt;" class="s7" d="m758 343.6l-2.5 2.2-0.5-4.7-0.5 4.7-2.4-2.2 2.3 3.6 0.6 1.1 0.7-1.1z"/>
						</g>
						<g id="&lt;Group&gt;">
							<path id="&lt;Path&gt;" class="s7" d="m779.4 343.6l-2.5 2.2-0.5-4.7-0.5 4.7-2.5-2.2 2.4 3.6 0.6 1.1 0.7-1.1z"/>
						</g>
					</g>
					<g id="&lt;Group&gt;">
						<g id="&lt;Group&gt;">
							<path id="&lt;Path&gt;" class="s5" d="m731.1 324.8v-6.6c0-4.3-3.2-8.1-7.5-8.4-4.5-0.2-8.3 3.4-8.3 7.9v12.8 2.7c0 7.2 5.8 13.1 13.1 13.1h2.7 17.3v-15.8h-11.7c-3.1 0-5.6-2.5-5.6-5.7z"/>
						</g>
						<g id="&lt;Group&gt;">
							<path id="&lt;Path&gt;" class="s6" d="m728.4 340.8c-4.2 0-7.6-3.4-7.6-7.6v-15.5c0-1.3 1.1-2.4 2.4-2.4 1.3 0.1 2.4 1.4 2.4 2.9v12c0 3.2 2.6 5.8 5.8 5.8h15.4v4.8z"/>
						</g>
						<g id="&lt;Group&gt;">
							<path id="&lt;Path&gt;" class="s7" d="m731.4 338.5l-2.4 2.1-0.5-4.6-0.5 4.6-2.5-2.1 2.3 3.6 0.6 1h0.1l0.6-1z"/>
						</g>
						<g id="&lt;Group&gt;">
							<path id="&lt;Path&gt;" class="s7" d="m723.8 327.1l-2.5 2.1-0.5-4.6-0.5 4.6-2.5-2.1 2.3 3.6 0.7 1 0.7-1z"/>
						</g>
						<g id="&lt;Group&gt;">
							<path id="&lt;Path&gt;" class="s7" d="m728.5 316.9l-2.5 2.2-0.5-4.6-0.5 4.6-2.5-2.2 2.3 3.7 0.7 1 0.6-1z"/>
						</g>
						<g id="&lt;Group&gt;">
							<path id="&lt;Path&gt;" class="s7" d="m742.9 338.5l-2.5 2.1-0.5-4.6-0.5 4.6-2.4-2.1 2.3 3.6 0.6 1 0.7-1z"/>
						</g>
					</g>
					<g id="&lt;Group&gt;">
						<g id="&lt;Group&gt;">
							<path id="&lt;Path&gt;" class="s5" d="m802 357.6v-6.7c0-4.3 3.2-8.1 7.5-8.3 4.5-0.2 8.3 3.4 8.3 7.9v12.7 2.8c0 7.2-5.9 13-13.1 13h-2.7-17.4v-15.8h11.7c3.2 0 5.7-2.5 5.7-5.6z"/>
						</g>
						<g id="&lt;Group&gt;">
							<path id="&lt;Path&gt;" class="s6" d="m804.7 373.5c4.2 0 7.6-3.4 7.6-7.5v-15.5c0-1.4-1.1-2.4-2.4-2.4-1.4 0-2.4 1.3-2.4 2.8v12c0 3.2-2.6 5.8-5.8 5.8h-17.1v4.8z"/>
						</g>
						<g id="&lt;Group&gt;">
							<path id="&lt;Path&gt;" class="s7" d="m801.6 371.2l2.5 2.2 0.5-4.7 0.5 4.7 2.5-2.2-2.3 3.6-0.7 1.1-0.7-1.1z"/>
						</g>
						<g id="&lt;Group&gt;">
							<path id="&lt;Path&gt;" class="s7" d="m809.3 359.8l2.5 2.2 0.5-4.7 0.5 4.7 2.4-2.2-2.3 3.7-0.6 1-0.7-1z"/>
						</g>
						<g id="&lt;Group&gt;">
							<path id="&lt;Path&gt;" class="s7" d="m804.6 349.7l2.5 2.1 0.5-4.6 0.5 4.7 2.4-2.2-2.3 3.6-0.6 1.1-0.7-1.1z"/>
						</g>
						<g id="&lt;Group&gt;">
							<path id="&lt;Path&gt;" class="s7" d="m790.2 371.2l2.4 2.2 0.5-4.7 0.5 4.7 2.5-2.2-2.3 3.6-0.7 1.1-0.6-1.1z"/>
						</g>
					</g>
					<g id="&lt;Group&gt;">
						<g id="&lt;Group&gt;">
							<path id="&lt;Path&gt;" class="s7" d="m758 362.4l-2.5 2.2-0.5-4.6-0.5 4.6-2.4-2.2 2.3 3.7 0.6 1 0.7-1z"/>
						</g>
						<g id="&lt;Group&gt;">
							<path id="&lt;Path&gt;" class="s7" d="m779.4 362.4l-2.5 2.2-0.5-4.6-0.5 4.6-2.5-2.2 2.4 3.7 0.6 1 0.7-1z"/>
						</g>
						<g id="&lt;Group&gt;">
							<path id="&lt;Path&gt;" class="s7" d="m768.7 369.6l-2.5 2.1-0.5-4.6-0.5 4.6-2.4-2.1 2.3 3.6 0.6 1.1v-0.1 0.1l0.7-1.1z"/>
						</g>
						<g id="&lt;Group&gt;">
							<path id="&lt;Path&gt;" class="s7" d="m768.7 387.4l-2.5 2.2-0.5-4.7-0.5 4.7-2.4-2.2 2.3 3.6 0.6 1.1 0.7-1.1z"/>
						</g>
						<g id="&lt;Group&gt;">
							<path id="&lt;Path&gt;" class="s7" d="m768.7 405.2l-2.5 2.2-0.5-4.7-0.5 4.7-2.4-2.2 2.3 3.6 0.6 1.1 0.7-1.1z"/>
						</g>
						<g id="&lt;Group&gt;">
							<path id="&lt;Path&gt;" class="s7" d="m758 379l-2.5 2.1-0.5-4.6-0.5 4.6-2.4-2.1 2.3 3.6 0.6 1 0.7-1z"/>
						</g>
						<g id="&lt;Group&gt;">
							<path id="&lt;Path&gt;" class="s7" d="m779.4 379l-2.5 2.1-0.5-4.6-0.5 4.6-2.5-2.1 2.4 3.6 0.6 1 0.7-1z"/>
						</g>
						<g id="&lt;Group&gt;">
							<path id="&lt;Path&gt;" class="s7" d="m758 395.5l-2.5 2.1-0.5-4.6-0.5 4.7-2.4-2.2 2.3 3.6 0.6 1.1 0.7-1.1z"/>
						</g>
						<g id="&lt;Group&gt;">
							<path id="&lt;Path&gt;" class="s7" d="m779.4 395.5l-2.5 2.1-0.5-4.6-0.5 4.7-2.5-2.2 2.4 3.6 0.6 1.1 0.7-1.1z"/>
						</g>
					</g>
					<g id="&lt;Group&gt;">
						<g id="&lt;Group&gt;">
							<path id="&lt;Path&gt;" class="s8" d="m767.4 290c0 0 0.4-5.9-1.7-9.8-2 3.9-1.7 9.8-1.7 9.8z"/>
						</g>
						<g id="&lt;Group&gt;">
							<path id="&lt;Path&gt;" class="s9" d="m768 288.1q-0.8 1.3-1.6 1.3h-0.7-0.7q-0.8 0-1.6-1.3l-2.5-4.2 1.6 7.2c0.8 3.9 2 6.1 3.2 6.1 1.2 0 2.4-2.2 3.3-6.1l1.6-7.2z"/>
						</g>
						<g id="&lt;Group&gt;">
							<path id="&lt;Path&gt;" class="s8" d="m769.2 289.5q-1.2 1-2.4 1h-1.1-1.1q-1.2 0-2.4-1l-3.9-3.6 2.4 6.1c1.4 3.3 3.2 5.2 5 5.2 1.9 0 3.7-1.9 5-5.2l2.4-6.1z"/>
						</g>
						<g id="&lt;Group&gt;">
							<path id="&lt;Path&gt;" class="s9" d="m770.8 290.8q-1.7 0.8-3.5 0.8h-1.6-1.6q-1.8 0-3.5-0.8l-5.7-3 3.5 5.1c2 2.8 4.6 4.3 7.3 4.3 2.8 0 5.4-1.5 7.3-4.3l3.6-5.1z"/>
						</g>
					</g>
					<g id="&lt;Group&gt;">
						<g id="&lt;Group&gt;">
							<path id="&lt;Path&gt;" class="s8" d="m723.6 306.8c0 0 0.2-3.7-1.1-6.2-1.3 2.5-1.1 6.2-1.1 6.2z"/>
						</g>
						<g id="&lt;Group&gt;">
							<path id="&lt;Path&gt;" class="s9" d="m724 305.6q-0.5 0.8-1 0.8h-0.5-0.4q-0.6 0-1-0.8l-1.7-2.6 1 4.5c0.6 2.5 1.3 3.9 2.1 3.9 0.8 0 1.5-1.4 2.1-3.9l1-4.5z"/>
						</g>
						<g id="&lt;Group&gt;">
							<path id="&lt;Path&gt;" class="s8" d="m724.7 306.5q-0.7 0.7-1.5 0.7h-0.7-0.7q-0.8 0-1.5-0.7l-2.5-2.3 1.5 3.9c0.9 2.1 2 3.3 3.2 3.3 1.2 0 2.3-1.2 3.2-3.3l1.5-3.9z"/>
						</g>
						<g id="&lt;Group&gt;">
							<path id="&lt;Path&gt;" class="s9" d="m725.8 307.3q-1.1 0.6-2.3 0.6h-1-1q-1.2 0-2.2-0.6l-3.7-1.9 2.3 3.3c1.2 1.7 2.9 2.7 4.6 2.7 1.8 0 3.4-1 4.7-2.7l2.2-3.3z"/>
						</g>
					</g>
					<g id="&lt;Group&gt;">
						<g id="&lt;Group&gt;">
							<path id="&lt;Path&gt;" class="s8" d="m811.2 338c0 0 0.3-5-1.4-8.2-1.7 3.2-1.4 8.2-1.4 8.2z"/>
						</g>
						<g id="&lt;Group&gt;">
							<path id="&lt;Path&gt;" class="s9" d="m811.7 336.4q-0.6 1-1.3 1h-0.6-0.6q-0.6 0-1.3-1l-2.1-3.5 1.3 5.9c0.7 3.3 1.7 5.1 2.7 5.1 1 0 2-1.8 2.7-5.1l1.3-5.9z"/>
						</g>
						<g id="&lt;Group&gt;">
							<path id="&lt;Path&gt;" class="s8" d="m812.7 337.5q-1 0.9-2 0.9h-0.9-0.9q-1 0-2-0.9l-3.2-3 2 5.1c1.1 2.7 2.6 4.3 4.1 4.3 1.5 0 3-1.6 4.1-4.3l2-5.1z"/>
						</g>
						<g id="&lt;Group&gt;">
							<path id="&lt;Path&gt;" class="s9" d="m814 338.6q-1.4 0.7-2.9 0.7h-1.3-1.3q-1.5 0-2.9-0.7l-4.7-2.5 2.9 4.2c1.6 2.3 3.7 3.6 6 3.6 2.3 0 4.4-1.3 6-3.6l2.9-4.2z"/>
						</g>
					</g>
				</g>
				<g id="&lt;Group&gt;">
					<g id="&lt;Group&gt;">
						<g id="&lt;Group&gt;">
							<path id="&lt;Compound Path&gt;" class="s10" d="m555.2 229.8l-58.6-16.7-7.2 38.9 20.8 11.7 6.4 31.4 0.1 49.9 7.4 40-27-4.6-0.9 9.6-4.5 37.2 5.4 6.9 55-26.4 20.1-65.6 4.1-43.7z"/>
						</g>
						<path id="&lt;Path&gt;" class="s11" d="m463.1 295.1l6.3 49.9 5.4 37.1 18.5 8.7 6.8 38.3-50.7-28.2-25.5-58.8-0.2-43.7 18.4-65.4 49.4-16.6 4.6 33.8-11.9 13.7z"/>
					</g>
					<g id="&lt;Group&gt;">
						<g id="&lt;Group&gt;">
							<g id="&lt;Group&gt;">
								<path id="&lt;Compound Path&gt;" fill-rule="evenodd" class="s10" d="m375 346.4l30.5-3 7.2 40.8-30.8-5.3 6 48.7-47.9-7.2-3.7-39.6-79.5-2.6 0.8-25.9 28.7-42.8 22.1-48.3 26.9-45.3 1.3 1.3 49.5-1.9 6.4 65zm-89-2.5l50.9-0.5-6.4-50.2zm44.5-50.7l5.2-6-2.5-10.7-4.6 2.4z"/>
							</g>
							<path id="&lt;Path&gt;" class="s11" d="m408 340l-5.7 33.2-71.4 6.6-77 6.1-1.9-35.4 26.3-46.2 24-47.2 35.6-42.9-4.4 63.7-39.9 65.9 57.7 7.2z"/>
						</g>
						<g id="&lt;Group&gt;">
							<g id="&lt;Group&gt;">
								<path id="&lt;Compound Path&gt;" fill-rule="evenodd" class="s10" d="m710.3 346.4l30.4-3 7.3 40.8-30.8-5.3 6 48.7-47.9-7.2-3.7-39.6-79.5-2.6 0.8-25.9 28.7-42.8 22.1-48.3 26.9-45.3 1.3 1.3 49.5-1.9 6.4 65zm-89.1-2.5l51-0.5-6.4-50.2zm44.5-50.7l5.2-6-2.5-10.7-4.6 2.4z"/>
							</g>
							<path id="&lt;Path&gt;" class="s11" d="m743.3 340l-5.7 33.2-71.4 6.6-77 6.1-1.9-35.4 26.3-46.2 24-47.2 35.6-42.9-4.4 63.7-39.9 65.9 57.7 7.2z"/>
						</g>
					</g>
				</g>
				<g id="&lt;Group&gt;">
					<g id="&lt;Group&gt;">
						<path id="&lt;Path&gt;" class="s5" d="m229.4 218.4c-12.8 0.4-22.8 11.2-22.8 24v200.4h46.9v-200.9c0-13.2-10.8-23.8-24.1-23.5z"/>
					</g>
					<g id="&lt;Group&gt;">
						<path id="&lt;Path&gt;" class="s6" d="m230 218.4c-7.3 0-13.3 10.5-13.3 23.5v200.9h26.7v-200.9c0-13-6-23.5-13.4-23.5z"/>
					</g>
					<g id="&lt;Group&gt;">
						<path id="&lt;Path&gt;" class="s6" d="m230 218.4c-2.7 0-5 10.5-5 23.5v200.9h10v-200.9c0-13-2.2-23.5-5-23.5z"/>
					</g>
					<g id="&lt;Group&gt;">
						<g id="&lt;Group&gt;">
							<path id="&lt;Path&gt;" class="s7" d="m220.5 235.9l-3.1 2.7-0.6-5.7-0.7 5.7-3-2.7 2.9 4.6 0.8 1.2 0.8-1.2v-0.1z"/>
						</g>
						<g id="&lt;Group&gt;">
							<path id="&lt;Path&gt;" class="s7" d="m247 235.9l-3.1 2.7-0.6-5.7-0.6 5.7-3.1-2.7 2.9 4.6 0.8 1.2 0.8-1.2v-0.1z"/>
						</g>
						<g id="&lt;Group&gt;">
							<path id="&lt;Path&gt;" class="s7" d="m233.7 244.8l-3 2.7-0.7-5.8-0.6 5.8-3-2.7 2.8 4.5 0.8 1.3 0.9-1.3z"/>
						</g>
						<g id="&lt;Group&gt;">
							<path id="&lt;Path&gt;" class="s7" d="m233.7 266.9l-3 2.7-0.7-5.8-0.6 5.8-3-2.7 2.8 4.5 0.8 1.3 0.9-1.3z"/>
						</g>
						<g id="&lt;Group&gt;">
							<path id="&lt;Path&gt;" class="s7" d="m233.7 289l-3 2.7-0.7-5.7-0.6 5.7-3-2.7 2.8 4.6 0.8 1.2 0.9-1.2v-0.1z"/>
						</g>
						<g id="&lt;Group&gt;">
							<path id="&lt;Path&gt;" class="s7" d="m220.5 256.5l-3.1 2.6-0.6-5.7-0.7 5.7-3-2.6 2.9 4.5 0.8 1.3v-0.1 0.1l0.8-1.3z"/>
						</g>
						<g id="&lt;Group&gt;">
							<path id="&lt;Path&gt;" class="s7" d="m247 256.5l-3.1 2.6-0.6-5.7-0.6 5.7-3.1-2.6 2.9 4.5 0.8 1.3v-0.1 0.1l0.8-1.3z"/>
						</g>
						<g id="&lt;Group&gt;">
							<path id="&lt;Path&gt;" class="s7" d="m220.5 277l-3.1 2.7-0.6-5.8-0.7 5.8-3-2.7 2.9 4.5 0.8 1.3 0.8-1.3z"/>
						</g>
						<g id="&lt;Group&gt;">
							<path id="&lt;Path&gt;" class="s7" d="m247 277l-3.1 2.7-0.6-5.8-0.6 5.8-3.1-2.7 2.9 4.5 0.8 1.3 0.8-1.3z"/>
						</g>
					</g>
					<g id="&lt;Group&gt;">
						<g id="&lt;Group&gt;">
							<path id="&lt;Path&gt;" class="s5" d="m187 253.7v-8.3c0-5.3-4-10.1-9.2-10.3-5.7-0.3-10.4 4.2-10.4 9.7v15.9 3.4c0 8.9 7.3 16.2 16.2 16.2h3.4 21.6v-19.6h-14.5c-3.9 0-7.1-3.1-7.1-7z"/>
						</g>
						<g id="&lt;Group&gt;">
							<path id="&lt;Path&gt;" class="s6" d="m183.6 273.5c-5.1 0-9.3-4.2-9.3-9.4v-19.3c0-1.6 1.3-2.9 2.9-2.9 1.7 0.1 3 1.7 3 3.5v14.9c0 4 3.2 7.2 7.2 7.2h19.2v6z"/>
						</g>
						<g id="&lt;Group&gt;">
							<path id="&lt;Path&gt;" class="s7" d="m187.5 270.6l-3.1 2.7-0.6-5.8-0.7 5.8-3-2.7 2.8 4.5 0.9 1.3 0.8-1.3z"/>
						</g>
						<g id="&lt;Group&gt;">
							<path id="&lt;Path&gt;" class="s7" d="m177.9 256.5l-3 2.6-0.6-5.7-0.7 5.7-3-2.6 2.8 4.5 0.9 1.3v-0.1 0.1l0.8-1.3z"/>
						</g>
						<g id="&lt;Group&gt;">
							<path id="&lt;Path&gt;" class="s7" d="m183.8 243.9l-3.1 2.7-0.6-5.8-0.6 5.8-3.1-2.7 2.9 4.5 0.8 1.3 0.8-1.3z"/>
						</g>
						<g id="&lt;Group&gt;">
							<path id="&lt;Path&gt;" class="s7" d="m201.7 270.6l-3.1 2.7-0.6-5.8-0.6 5.8-3.1-2.7 2.9 4.5 0.8 1.3 0.8-1.3z"/>
						</g>
					</g>
					<g id="&lt;Group&gt;">
						<g id="&lt;Group&gt;">
							<path id="&lt;Path&gt;" class="s5" d="m275.1 363.2v-8.3c0-5.3 3.9-10.1 9.2-10.3 5.7-0.3 10.3 4.2 10.3 9.7v15.9 3.4c0 8.9-7.2 16.2-16.2 16.2h-3.3-21.6v-19.6h14.5c3.9 0 7.1-3.1 7.1-7z"/>
						</g>
						<g id="&lt;Group&gt;">
							<path id="&lt;Path&gt;" class="s6" d="m278.4 383c5.2 0 9.4-4.2 9.4-9.4v-19.3c0-1.6-1.3-2.9-2.9-2.9-1.7 0.1-3 1.7-3 3.5v14.9c0 4-3.2 7.2-7.2 7.2h-21.2v6z"/>
						</g>
						<g id="&lt;Group&gt;">
							<path id="&lt;Path&gt;" class="s7" d="m274.6 380.1l3.1 2.7 0.6-5.8 0.6 5.8 3.1-2.7-2.9 4.5-0.8 1.3-0.8-1.3z"/>
						</g>
						<g id="&lt;Group&gt;">
							<path id="&lt;Path&gt;" class="s7" d="m284.1 366l3.1 2.6 0.6-5.7 0.6 5.8 3.1-2.7-2.9 4.5-0.8 1.3-0.8-1.3z"/>
						</g>
						<g id="&lt;Group&gt;">
							<path id="&lt;Path&gt;" class="s7" d="m278.3 353.4l3.1 2.7 0.6-5.8 0.6 5.8 3.1-2.7-2.9 4.5-0.8 1.3-0.8-1.3z"/>
						</g>
						<g id="&lt;Group&gt;">
							<path id="&lt;Path&gt;" class="s7" d="m260.4 380.1l3 2.7 0.7-5.8 0.6 5.8 3-2.7-2.8 4.5-0.8 1.3-0.9-1.3z"/>
						</g>
					</g>
					<g id="&lt;Group&gt;">
						<g id="&lt;Group&gt;">
							<path id="&lt;Path&gt;" class="s7" d="m220.5 300.4l-3.1 2.6-0.6-5.7-0.7 5.7-3-2.6 2.9 4.5 0.8 1.3v-0.1 0.1l0.8-1.3z"/>
						</g>
						<g id="&lt;Group&gt;">
							<path id="&lt;Path&gt;" class="s7" d="m247 300.4l-3.1 2.6-0.6-5.7-0.6 5.7-3.1-2.6 2.9 4.5 0.8 1.3v-0.1 0.1l0.8-1.3z"/>
						</g>
						<g id="&lt;Group&gt;">
							<path id="&lt;Path&gt;" class="s7" d="m233.7 309.2l-3 2.7-0.7-5.7-0.6 5.7-3-2.7 2.8 4.6 0.8 1.2 0.9-1.2v-0.1z"/>
						</g>
						<g id="&lt;Group&gt;">
							<path id="&lt;Path&gt;" class="s7" d="m233.7 331.3l-3 2.7-0.7-5.7-0.6 5.7-3-2.7 2.8 4.6 0.8 1.2 0.9-1.2z"/>
						</g>
						<g id="&lt;Group&gt;">
							<path id="&lt;Path&gt;" class="s7" d="m233.7 353.5l-3 2.6-0.7-5.7-0.6 5.7-3-2.6 2.8 4.5 0.8 1.3v-0.1 0.1l0.9-1.3z"/>
						</g>
						<g id="&lt;Group&gt;">
							<path id="&lt;Path&gt;" class="s7" d="m220.5 320.9l-3.1 2.7-0.6-5.8-0.7 5.8-3-2.7 2.9 4.5 0.8 1.3 0.8-1.3z"/>
						</g>
						<g id="&lt;Group&gt;">
							<path id="&lt;Path&gt;" class="s7" d="m247 320.9l-3.1 2.7-0.6-5.8-0.6 5.8-3.1-2.7 2.9 4.5 0.8 1.3 0.8-1.3z"/>
						</g>
						<g id="&lt;Group&gt;">
							<path id="&lt;Path&gt;" class="s7" d="m220.5 341.4l-3.1 2.7-0.6-5.8-0.7 5.8-3-2.7 2.9 4.5 0.8 1.3 0.8-1.3z"/>
						</g>
						<g id="&lt;Group&gt;">
							<path id="&lt;Path&gt;" class="s7" d="m247 341.4l-3.1 2.7-0.6-5.8-0.6 5.8-3.1-2.7 2.9 4.5 0.8 1.3 0.8-1.3z"/>
						</g>
					</g>
					<g id="&lt;Group&gt;">
						<g id="&lt;Group&gt;">
							<path id="&lt;Path&gt;" class="s7" d="m220.5 366l-3.1 2.7-0.6-5.7-0.7 5.7-3-2.7 2.9 4.6 0.8 1.2 0.8-1.2z"/>
						</g>
						<g id="&lt;Group&gt;">
							<path id="&lt;Path&gt;" class="s7" d="m247 366l-3.1 2.7-0.6-5.7-0.6 5.7-3.1-2.7 2.9 4.6 0.8 1.2 0.8-1.2z"/>
						</g>
						<g id="&lt;Group&gt;">
							<path id="&lt;Path&gt;" class="s7" d="m233.7 374.9l-3 2.7-0.7-5.8-0.6 5.8-3-2.7 2.8 4.5 0.8 1.3 0.9-1.3z"/>
						</g>
						<g id="&lt;Group&gt;">
							<path id="&lt;Path&gt;" class="s7" d="m233.7 397l-3 2.7-0.7-5.7-0.6 5.7-3-2.7 2.8 4.5v0.1l0.8 1.2 0.9-1.3z"/>
						</g>
						<g id="&lt;Group&gt;">
							<path id="&lt;Path&gt;" class="s7" d="m233.7 419.1l-3 2.7-0.7-5.7-0.6 5.7-3-2.7 2.8 4.6 0.8 1.2 0.9-1.2v-0.1z"/>
						</g>
						<g id="&lt;Group&gt;">
							<path id="&lt;Path&gt;" class="s7" d="m220.5 386.6l-3.1 2.6-0.6-5.7-0.7 5.8-3-2.7 2.9 4.5 0.8 1.3 0.8-1.3z"/>
						</g>
						<g id="&lt;Group&gt;">
							<path id="&lt;Path&gt;" class="s7" d="m247 386.6l-3.1 2.6-0.6-5.7-0.6 5.8-3.1-2.7 2.9 4.5 0.8 1.3 0.8-1.3z"/>
						</g>
						<g id="&lt;Group&gt;">
							<path id="&lt;Path&gt;" class="s7" d="m220.5 407.1l-3.1 2.7-0.6-5.8-0.7 5.8-3-2.7 2.9 4.5 0.8 1.3 0.8-1.3z"/>
						</g>
						<g id="&lt;Group&gt;">
							<path id="&lt;Path&gt;" class="s7" d="m247 407.1l-3.1 2.7-0.6-5.8-0.6 5.8-3.1-2.7 2.9 4.5 0.8 1.3 0.8-1.3z"/>
						</g>
					</g>
					<g id="&lt;Group&gt;">
						<g id="&lt;Group&gt;">
							<path id="&lt;Path&gt;" class="s8" d="m232.1 210.5c0 0 0.5-7.4-2.1-12.3-2.5 4.9-2 12.3-2 12.3z"/>
						</g>
						<g id="&lt;Group&gt;">
							<path id="&lt;Path&gt;" class="s9" d="m232.9 208.1q-1 1.5-2 1.5h-0.9-0.8q-1 0-2-1.5l-3.2-5.2 2 8.9c1.1 4.9 2.5 7.6 4 7.6 1.6 0 3-2.7 4.1-7.6l1.9-8.9z"/>
						</g>
						<g id="&lt;Group&gt;">
							<path id="&lt;Path&gt;" class="s8" d="m234.4 209.8q-1.5 1.3-3 1.3h-1.4-1.3q-1.5 0-3-1.3l-4.9-4.5 3 7.6c1.7 4.2 3.9 6.5 6.2 6.5 2.4 0 4.6-2.3 6.2-6.5l3-7.6z"/>
						</g>
						<g id="&lt;Group&gt;">
							<path id="&lt;Path&gt;" class="s9" d="m236.4 211.4c-1.4 0.7-2.9 1.1-4.4 1.1h-2-1.9c-1.5 0-3-0.4-4.4-1.1l-7.1-3.7 4.4 6.3c2.4 3.5 5.6 5.4 9 5.4 3.4 0 6.7-1.9 9.1-5.4l4.4-6.3z"/>
						</g>
					</g>
					<g id="&lt;Group&gt;">
						<g id="&lt;Group&gt;">
							<path id="&lt;Path&gt;" class="s8" d="m177.7 231.3c0 0 0.3-4.7-1.3-7.8-1.6 3.1-1.3 7.8-1.3 7.8z"/>
						</g>
						<g id="&lt;Group&gt;">
							<path id="&lt;Path&gt;" class="s9" d="m178.2 229.8q-0.6 1-1.2 1h-0.6-0.6q-0.6 0-1.2-1l-2-3.3 1.2 5.7c0.7 3.1 1.6 4.8 2.6 4.8 1 0 1.9-1.7 2.6-4.8l1.2-5.7z"/>
						</g>
						<g id="&lt;Group&gt;">
							<path id="&lt;Path&gt;" class="s8" d="m179.1 230.9q-0.9 0.8-1.9 0.8h-0.8-0.9q-0.9 0-1.9-0.8l-3.1-2.8 2 4.8c1 2.6 2.4 4.1 3.9 4.1 1.5 0 2.9-1.5 3.9-4.1l1.9-4.8z"/>
						</g>
						<g id="&lt;Group&gt;">
							<path id="&lt;Path&gt;" class="s9" d="m180.4 231.9q-1.3 0.7-2.8 0.7h-1.2-1.3q-1.4 0-2.7-0.7l-4.6-2.3 2.8 4c1.6 2.2 3.6 3.4 5.8 3.4 2.2 0 4.2-1.2 5.8-3.4l2.8-4z"/>
						</g>
					</g>
					<g id="&lt;Group&gt;">
						<g id="&lt;Group&gt;">
							<path id="&lt;Path&gt;" class="s8" d="m286.5 338.8c0 0 0.4-6.1-1.7-10.1-2.1 4-1.7 10.1-1.7 10.1z"/>
						</g>
						<g id="&lt;Group&gt;">
							<path id="&lt;Path&gt;" class="s9" d="m287.1 336.9q-0.8 1.2-1.6 1.2h-0.7-0.8q-0.8 0-1.6-1.2l-2.6-4.3 1.6 7.3c0.9 4 2.1 6.3 3.4 6.3 1.2 0 2.4-2.3 3.3-6.3l1.6-7.3z"/>
						</g>
						<g id="&lt;Group&gt;">
							<path id="&lt;Path&gt;" class="s8" d="m288.3 338.2q-1.2 1.1-2.4 1.1h-1.1-1.1q-1.3 0-2.5-1.1l-4-3.6 2.5 6.2c1.3 3.4 3.2 5.4 5.1 5.4 1.9 0 3.7-2 5.1-5.4l2.4-6.2z"/>
						</g>
						<g id="&lt;Group&gt;">
							<path id="&lt;Path&gt;" class="s9" d="m290 339.6q-1.8 0.9-3.6 0.9h-1.6-1.7q-1.8 0-3.6-0.9l-5.8-3.1 3.6 5.2c2 2.9 4.7 4.5 7.5 4.5 2.8 0 5.5-1.6 7.4-4.5l3.7-5.2z"/>
						</g>
					</g>
				</g>
				<g id="&lt;Group&gt;">
					<g id="&lt;Group&gt;">
						<path id="&lt;Path&gt;" class="s0" d="m851.4 416.1c-1.3 0-24.3 35.1-26.6 38.4-11.8 16.9-35.2 19.5-53.2 29.4-13.7 7.6-24.5 19.7-33 32.8-11.2 17.3-20.4 38.2-39.2 46.7-15.1 6.9-33 3.8-48.3-2.6-25.4-10.8-44-23.4-72.1-27-26.8-3.4-54.6 0.3-79.5 11-24.8 10.8-50.5 28.7-76.4 20.9-32.9-9.8-46.3-56.1-80.2-61.3-24.4-3.8-46.4 16.3-71 18.1-24 1.7-45.9-14.2-61.2-32.7-15.3-18.5-26.4-40.4-43-57.8-6-6.3-12.4-11.5-19.1-15.9 0 0 699.7 0 702.8 0z"/>
					</g>
					<g id="&lt;Group&gt;">
						<path id="&lt;Path&gt;" class="s7" d="m851.4 416.1c-1.3 0-24.3 35.1-26.6 38.5-11.8 16.8-35.2 19.4-53.2 29.3-13.7 7.6-24.5 19.7-33 32.8-11.2 17.3-20.4 38.2-39.2 46.7-15.1 6.9-33 3.8-48.3-2.6-25.4-10.8-44-23.4-72.1-27-26.8-3.4-54.6 0.2-79.5 11-24.8 10.8-50.5 28.7-76.4 20.9-32.9-9.8-46.3-56.1-80.2-61.3-24.4-3.8-46.4 16.3-71 18.1-24 1.7-45.9-14.2-61.2-32.7-15.3-18.5-26.4-40.4-43-57.8-6-6.3-12.4-11.5-19.1-15.9 0 0 18.8 0 50.4 0 3.7 5.3 7.6 10.6 11.7 15.7 15.3 18.5 37.2 34.4 61.2 32.6 24.6-1.8 46.6-21.8 71-18 33.9 5.2 47.3 51.5 80.2 61.3 25.9 7.7 51.6-10.2 76.4-20.9 24.9-10.8 52.7-14.5 79.5-11 28.1 3.6 46.7 16.2 72.1 26.9 15.3 6.5 33.2 9.5 48.3 2.7 18.8-8.6 28-29.4 39.2-46.8 8.5-13.1 19.3-25.2 33-32.7 7.2-4 15.3-6.8 23.2-9.8z"/>
					</g>
				</g>
				<g id="&lt;Group&gt;">
					<g id="&lt;Group&gt;">
						<g id="&lt;Group&gt;">
							<g id="&lt;Group&gt;">
								<path id="&lt;Path&gt;" class="s12" d="m510.5 98.6h143.9c-0.5-13.9-11.9-24.9-25.9-24.9-5.8-13-18.8-22.1-33.9-22.1-18.2 0-33.3 13.1-36.5 30.4q-0.9-0.1-2-0.1c-5.8 0-11 2.8-14.3 7.2q-1.6-0.5-3.4-0.5c-4.3 0-8.1 1.9-10.7 4.8-1.8-1-3.8-1.5-5.9-1.5-4.9 0-9.1 2.7-11.3 6.7z"/>
								<path id="&lt;Path&gt;" class="s12" d="m685.7 100.6h-193.1c-0.7 0-1.3-0.5-1.3-1.2 0-0.8 0.6-1.3 1.3-1.3h193.1c0.7 0 1.3 0.5 1.3 1.3 0 0.7-0.6 1.2-1.3 1.2z"/>
								<path id="&lt;Path&gt;" class="s12" d="m543.3 107.9h-70.8c-0.7 0-1.3-0.6-1.3-1.3 0-0.7 0.6-1.3 1.3-1.3h70.8c0.7 0 1.3 0.6 1.3 1.3 0 0.7-0.6 1.3-1.3 1.3z"/>
								<path id="&lt;Path&gt;" class="s12" d="m626.1 107.9h-38.8c-0.8 0-1.3-0.6-1.3-1.3 0-0.7 0.5-1.3 1.3-1.3h38.8c0.8 0 1.3 0.6 1.3 1.3 0 0.7-0.5 1.3-1.3 1.3z"/>
							</g>
						</g>
						<g id="&lt;Group&gt;">
							<g id="&lt;Group&gt;">
								<path id="&lt;Path&gt;" class="s12" d="m441 172.4h-121.3c0.5-11.7 10.1-21 21.9-21 4.9-11 15.8-18.6 28.6-18.6 15.3 0 28 11 30.7 25.6q0.8-0.1 1.7-0.1c4.9 0 9.3 2.4 12 6q1.4-0.3 2.9-0.3c3.6 0 6.8 1.5 9 4 1.5-0.8 3.2-1.3 5-1.3 4.1 0 7.7 2.3 9.5 5.7z"/>
								<path id="&lt;Path&gt;" class="s12" d="m293.4 174.1h162.7c0.6 0 1.1-0.5 1.1-1.1 0-0.6-0.5-1.1-1.1-1.1h-162.7c-0.6 0-1.1 0.5-1.1 1.1 0 0.6 0.5 1.1 1.1 1.1z"/>
								<path id="&lt;Path&gt;" class="s12" d="m413.4 180.2h59.6c0.6 0 1.1-0.5 1.1-1.1 0-0.6-0.5-1.1-1.1-1.1h-59.6c-0.6 0-1.1 0.5-1.1 1.1 0 0.6 0.5 1.1 1.1 1.1z"/>
								<path id="&lt;Path&gt;" class="s12" d="m343.6 180.2h32.7c0.6 0 1.1-0.5 1.1-1.1 0-0.6-0.5-1.1-1.1-1.1h-32.7c-0.6 0-1.1 0.5-1.1 1.1 0 0.6 0.5 1.1 1.1 1.1z"/>
							</g>
						</g>
					</g>
				</g>
			</g>
		</g>
	</g>
</svg>